# xmcd
#
# Track frame offsets: 
#        150
#        14355
#        24089
#        37028
#        58572
#        72050
#        85718
#        95644
#        105499
#        117862
#        131269
#
# Disc length: 1857 seconds
#
# Revision: 0
# Processed by: cddbd v1.5.2PL0 Copyright (c) Steve Scherf et al.
# Submitted via: ExactAudioCopy v0.95b4
#
DISCID=7e073f0b
DTITLE=Johnny Cash - Everybody Loves A Nut
DYEAR=1966
DGENRE=Country
TTITLE0=Joe Bean
TTITLE1=Everybody loves a Nut
TTITLE2=The one on the right is on the left
TTITLE3=A cup of Coffee
TTITLE4=The Bug that tried to crawl around the World
TTITLE5=The singing Star's Queen
TTITLE6=Austin Prison
TTITLE7=Dirty old egg-sucking dog
TTITLE8=Take me home
TTITLE9=Please don't play red river valley
TTITLE10=Boa Constrictor
EXTD=
EXTT0=
EXTT1=
EXTT2=
EXTT3=
EXTT4=
EXTT5=
EXTT6=
EXTT7=
EXTT8=
EXTT9=
EXTT10=
PLAYORDER=
